Publica-55.ufo
<glyph name="exclam" format="2">
  <advance width="280"/>
  <unicode hex="0021"/>
  <outline>
    <contour>
      <point x="96" y="0" type="line"/>
      <point x="185" y="0" type="line"/>
      <point x="185" y="92" type="line" identifier="2hqZtBz54h"/>
      <point x="96" y="92" type="line" identifier="Tky8mbmNu2"/>
    </contour>
    <contour>
      <point x="167" y="162" type="line" identifier="CY6nWOTgYp"/>
      <point x="175" y="576" type="line"/>
      <point x="177" y="675" type="line"/>
      <point x="99" y="675" type="line"/>
      <point x="101" y="576" type="line"/>
      <point x="109" y="162" type="line" identifier="5k6wGcCwjZ"/>
    </contour>
  </outline>
</glyph>
<glyph name="dollar" format="2">
  <advance width="508"/>
  <unicode hex="0024"/>
  <outline>
    <contour identifier="cF4PbeDbpA">
      <point x="218" y="93" type="line"/>
      <point x="218" y="-60" type="line"/>
      <point x="288" y="-60" type="line"/>
      <point x="288" y="90" type="line"/>
    </contour>
    <contour identifier="bcSgvsZQmx">
      <point x="288" y="520" type="line"/>
      <point x="288" y="654" type="line"/>
      <point x="218" y="654" type="line"/>
      <point x="218" y="520" type="line"/>
    </contour>
    <component base="s" xOffset="4" yOffset="76"/>
  </outline>
</glyph>
<glyph name="ampersand" format="2">
  <advance width="691"/>
  <unicode hex="0026"/>
  <outline>
    <contour>
      <point x="633" y="0" type="curve"/>
      <point x="633" y="61" type="line"/>
      <point x="618" y="57"/>
      <point x="603" y="56"/>
      <point x="588" y="56" type="curve" smooth="yes"/>
      <point x="541" y="56"/>
      <point x="499" y="82"/>
      <point x="462" y="120" type="curve" smooth="yes"/>
      <point x="405" y="179"/>
      <point x="342" y="260"/>
      <point x="299" y="348" type="curve" smooth="yes"/>
      <point x="274" y="400"/>
      <point x="262" y="434"/>
      <point x="262" y="475" type="curve" smooth="yes"/>
      <point x="262" y="529"/>
      <point x="294" y="560"/>
      <point x="347" y="560" type="curve" smooth="yes"/>
      <point x="397" y="560"/>
      <point x="430" y="532"/>
      <point x="430" y="489" type="curve" smooth="yes"/>
      <point x="430" y="432"/>
      <point x="386" y="398"/>
      <point x="261" y="359" type="curve"/>
      <point x="286" y="309" type="line"/>
      <point x="435" y="357"/>
      <point x="496" y="410"/>
      <point x="496" y="489" type="curve" smooth="yes"/>
      <point x="496" y="565"/>
      <point x="439" y="612"/>
      <point x="348" y="612" type="curve" smooth="yes"/>
      <point x="256" y="612"/>
      <point x="194" y="558"/>
      <point x="194" y="475" type="curve" smooth="yes"/>
      <point x="194" y="430"/>
      <point x="208" y="389"/>
      <point x="241" y="323" type="curve" smooth="yes"/>
      <point x="283" y="239"/>
      <point x="351" y="137"/>
      <point x="415" y="74" type="curve" smooth="yes"/>
      <point x="467" y="21"/>
      <point x="510" y="-5"/>
      <point x="582" y="-5" type="curve" smooth="yes"/>
      <point x="592" y="-5"/>
      <point x="613" y="-4"/>
    </contour>
    <contour>
      <point x="502" y="320" type="line"/>
      <point x="503" y="190"/>
      <point x="430" y="49"/>
      <point x="280" y="49" type="curve" smooth="yes"/>
      <point x="195" y="49"/>
      <point x="152" y="91"/>
      <point x="152" y="162" type="curve" smooth="yes"/>
      <point x="152" y="230"/>
      <point x="194" y="276"/>
      <point x="284" y="305" type="curve"/>
      <point x="258" y="358" type="line"/>
      <point x="141" y="320"/>
      <point x="80" y="252"/>
      <point x="80" y="158" type="curve" smooth="yes"/>
      <point x="80" y="51"/>
      <point x="150" y="-10"/>
      <point x="273" y="-10" type="curve" smooth="yes"/>
      <point x="441" y="-10"/>
      <point x="571" y="145"/>
      <point x="570" y="323" type="curve"/>
    </contour>
  </outline>
</glyph>
<glyph name="plus" format="2">
  <advance width="534"/>
  <unicode hex="002B"/>
  <outline>
    <contour>
      <point x="50" y="264" type="line"/>
      <point x="484" y="264" type="line"/>
      <point x="484" y="322" type="line"/>
      <point x="50" y="322" type="line"/>
    </contour>
    <contour>
      <point x="297" y="79" type="line"/>
      <point x="297" y="508" type="line"/>
      <point x="238" y="508" type="line"/>
      <point x="238" y="79" type="line"/>
    </contour>
  </outline>
</glyph>
<glyph name="two" format="2">
  <advance width="550"/>
  <unicode hex="0032"/>
  <outline>
    <contour>
      <point x="65" y="0" type="line"/>
      <point x="471" y="0" type="line"/>
      <point x="471" y="59" type="line"/>
      <point x="102" y="59" type="line"/>
      <point x="122" y="34" type="line"/>
      <point x="237" y="138" type="line" smooth="yes"/>
      <point x="425" y="310"/>
      <point x="460" y="364"/>
      <point x="460" y="445" type="curve" smooth="yes"/>
      <point x="460" y="557"/>
      <point x="392" y="615"/>
      <point x="262" y="615" type="curve" smooth="yes"/>
      <point x="142" y="615"/>
      <point x="61" y="552"/>
      <point x="61" y="458" type="curve"/>
      <point x="129" y="458" type="line"/>
      <point x="129" y="515"/>
      <point x="183" y="556"/>
      <point x="259" y="556" type="curve" smooth="yes"/>
      <point x="341" y="556"/>
      <point x="390" y="514"/>
      <point x="390" y="448" type="curve" smooth="yes"/>
      <point x="390" y="379"/>
      <point x="364" y="339"/>
      <point x="202" y="187" type="curve" smooth="yes"/>
      <point x="65" y="60" type="line"/>
    </contour>
  </outline>
</glyph>
<glyph name="three" format="2">
  <advance width="562"/>
  <unicode hex="0033"/>
  <outline>
    <contour>
      <point x="480" y="166" type="curve" smooth="yes"/>
      <point x="480" y="268"/>
      <point x="405" y="329"/>
      <point x="283" y="327" type="curve"/>
      <point x="283" y="300" type="line"/>
      <point x="398" y="305"/>
      <point x="463" y="362"/>
      <point x="463" y="459" type="curve" smooth="yes"/>
      <point x="463" y="560"/>
      <point x="396" y="615"/>
      <point x="273" y="615" type="curve" smooth="yes"/>
      <point x="152" y="615"/>
      <point x="72" y="549"/>
      <point x="72" y="454" type="curve"/>
      <point x="139" y="454" type="line"/>
      <point x="139" y="519"/>
      <point x="187" y="557"/>
      <point x="269" y="557" type="curve" smooth="yes"/>
      <point x="349" y="557"/>
      <point x="391" y="521"/>
      <point x="391" y="451" type="curve" smooth="yes"/>
      <point x="391" y="380"/>
      <point x="342" y="340"/>
      <point x="253" y="340" type="curve" smooth="yes"/>
      <point x="207" y="340" type="line"/>
      <point x="207" y="279" type="line"/>
      <point x="257" y="279" type="line" smooth="yes"/>
      <point x="351" y="279"/>
      <point x="406" y="233"/>
      <point x="406" y="159" type="curve" smooth="yes"/>
      <point x="406" y="88"/>
      <point x="360" y="50"/>
      <point x="273" y="50" type="curve" smooth="yes"/>
      <point x="185" y="50"/>
      <point x="129" y="94"/>
      <point x="129" y="161" type="curve"/>
      <point x="62" y="161" type="line"/>
      <point x="62" y="56"/>
      <point x="143" y="-10"/>
      <point x="268" y="-10" type="curve" smooth="yes"/>
      <point x="403" y="-10"/>
      <point x="480" y="54"/>
    </contour>
  </outline>
</glyph>
<glyph name="four" format="2">
  <advance width="564"/>
  <unicode hex="0034"/>
  <outline>
    <contour>
      <point x="499" y="140" type="line"/>
      <point x="499" y="197" type="line"/>
      <point x="101" y="197" type="line"/>
      <point x="105" y="171" type="line"/>
      <point x="370" y="547" type="line"/>
      <point x="344" y="547" type="line"/>
      <point x="344" y="0" type="line"/>
      <point x="410" y="0" type="line"/>
      <point x="410" y="605" type="line"/>
      <point x="338" y="605" type="line"/>
      <point x="51" y="196" type="line"/>
      <point x="51" y="140" type="line"/>
    </contour>
  </outline>
</glyph>
<glyph name="E" format="2">
  <advance width="540"/>
  <unicode hex="0045"/>
  <outline>
    <contour>
      <point x="172" y="577" type="line"/>
      <point x="141" y="546" type="line"/>
      <point x="473" y="546" type="line"/>
      <point x="473" y="605" type="line"/>
      <point x="102" y="605" type="line"/>
      <point x="102" y="1" type="line"/>
      <point x="479" y="1" type="line"/>
      <point x="479" y="60" type="line"/>
      <point x="130" y="60" type="line"/>
      <point x="172" y="16" type="line"/>
    </contour>
    <contour>
      <point x="133" y="281" type="line"/>
      <point x="453" y="281" type="line"/>
      <point x="453" y="340" type="line"/>
      <point x="133" y="340" type="line"/>
    </contour>
  </outline>
</glyph>
<glyph name="F" format="2">
  <advance width="530"/>
  <unicode hex="0046"/>
  <outline>
    <contour>
      <point x="138" y="546" type="line"/>
      <point x="473" y="546" type="line" identifier="eIS8fJ8v7D"/>
      <point x="473" y="605" type="line"/>
      <point x="102" y="605" type="line"/>
      <point x="102" y="1" type="line"/>
      <point x="172" y="1" type="line"/>
      <point x="172" y="577" type="line" identifier="6V4VA1aoKD"/>
    </contour>
    <contour>
      <point x="133" y="340" type="line"/>
      <point x="133" y="281" type="line"/>
      <point x="453" y="281" type="line"/>
      <point x="453" y="340" type="line"/>
    </contour>
  </outline>
</glyph>
<glyph name="Q" format="2">
  <advance width="710"/>
  <unicode hex="0051"/>
  <guideline x="48" y="0" angle="90.0" name="TRAC" identifier="thR5UjqQnY"/>
  <guideline x="662" y="0" angle="90.0" name="TRAC" identifier="uCnMJazBHE"/>
  <outline>
    <contour identifier="rOFeMkZ3US">
      <point x="390" y="16" type="line"/>
      <point x="315" y="16" type="line"/>
      <point x="315" y="-31" type="line" smooth="yes"/>
      <point x="315" y="-117"/>
      <point x="373" y="-163"/>
      <point x="481" y="-163" type="curve" smooth="yes"/>
      <point x="571" y="-163" type="line"/>
      <point x="571" y="-95" type="line"/>
      <point x="495" y="-95" type="line" smooth="yes"/>
      <point x="417" y="-95"/>
      <point x="390" y="-75"/>
      <point x="390" y="-22" type="curve" smooth="yes"/>
    </contour>
    <component base="O"/>
  </outline>
</glyph>
<glyph name="R" format="2">
  <advance width="585"/>
  <unicode hex="0052"/>
  <guideline x="92" y="0" angle="90.0" name="TRAC" identifier="uM5FteKDnK"/>
  <guideline x="554" y="0" angle="90.0" name="TRAC" identifier="f63LRRdMKD"/>
  <anchor x="135" y="523" name="top"/>
  <anchor x="135" y="-38" name="bottom"/>
  <outline>
    <contour identifier="I7KTRDZ1kO">
      <point x="287" y="276" type="line"/>
      <point x="461" y="0" type="line"/>
      <point x="544" y="0" type="line"/>
      <point x="357" y="276" type="line"/>
    </contour>
    <component base="P"/>
  </outline>
</glyph>
<glyph name="S" format="2">
  <advance width="583"/>
  <unicode hex="0053"/>
  <outline>
    <contour>
      <point x="521" y="167" type="curve" smooth="yes"/>
      <point x="521" y="265"/>
      <point x="473" y="305"/>
      <point x="305" y="345" type="curve" smooth="yes"/>
      <point x="177" y="376"/>
      <point x="147" y="397"/>
      <point x="147" y="461" type="curve" smooth="yes"/>
      <point x="147" y="525"/>
      <point x="198" y="561"/>
      <point x="290" y="561" type="curve" smooth="yes"/>
      <point x="388" y="561"/>
      <point x="437" y="528"/>
      <point x="437" y="465" type="curve"/>
      <point x="507" y="465" type="line"/>
      <point x="507" y="558"/>
      <point x="428" y="615"/>
      <point x="292" y="615" type="curve" smooth="yes"/>
      <point x="157" y="615"/>
      <point x="75" y="556"/>
      <point x="75" y="455" type="curve" smooth="yes"/>
      <point x="75" y="365"/>
      <point x="126" y="321"/>
      <point x="273" y="285" type="curve" smooth="yes"/>
      <point x="424" y="248"/>
      <point x="453" y="229"/>
      <point x="453" y="164" type="curve" smooth="yes"/>
      <point x="453" y="85"/>
      <point x="397" y="46"/>
      <point x="282" y="46" type="curve" smooth="yes"/>
      <point x="176" y="46"/>
      <point x="116" y="86"/>
      <point x="116" y="159" type="curve"/>
      <point x="46" y="159" type="line"/>
      <point x="46" y="51"/>
      <point x="130" y="-10"/>
      <point x="279" y="-10" type="curve" smooth="yes"/>
      <point x="438" y="-10"/>
      <point x="521" y="59"/>
    </contour>
  </outline>
</glyph>
<glyph name="T" format="2">
  <advance width="552"/>
  <unicode hex="0054"/>
  <outline>
    <contour>
      <point x="241" y="571" type="line"/>
      <point x="241" y="0" type="line"/>
      <point x="311" y="0" type="line"/>
      <point x="311" y="571" type="line"/>
    </contour>
    <contour>
      <point x="513" y="546" type="line"/>
      <point x="513" y="605" type="line"/>
      <point x="39" y="605" type="line"/>
      <point x="39" y="546" type="line"/>
    </contour>
  </outline>
</glyph>
<glyph name="Y" format="2">
  <advance width="597"/>
  <unicode hex="0059"/>
  <outline>
    <contour>
      <point x="333" y="252" type="line"/>
      <point x="549" y="605" type="line"/>
      <point x="470" y="605" type="line"/>
      <point x="284" y="285" type="line"/>
      <point x="315" y="285" type="line"/>
      <point x="128" y="605" type="line"/>
      <point x="49" y="605" type="line"/>
      <point x="263" y="252" type="line"/>
      <point x="263" y="0" type="line"/>
      <point x="333" y="0" type="line"/>
    </contour>
  </outline>
</glyph>
<glyph name="backslash" format="2">
  <advance width="495"/>
  <unicode hex="005C"/>
  <outline>
    <contour>
      <point x="445" y="-190" type="line"/>
      <point x="124" y="675" type="line"/>
      <point x="51" y="675" type="line"/>
      <point x="372" y="-190" type="line"/>
    </contour>
  </outline>
</glyph>
<glyph name="u" format="2">
  <advance width="560"/>
  <unicode hex="0075"/>
  <outline>
    <contour>
      <point x="162" y="465" type="line"/>
      <point x="92" y="465" type="line"/>
      <point x="92" y="158" type="line" smooth="yes"/>
      <point x="92" y="39"/>
      <point x="138" y="-10"/>
      <point x="242" y="-10" type="curve" smooth="yes"/>
      <point x="357" y="-10"/>
      <point x="398" y="62"/>
      <point x="412" y="135" type="curve"/>
      <point x="398" y="135" type="line"/>
      <point x="398" y="0" type="line"/>
      <point x="468" y="0" type="line"/>
      <point x="468" y="465" type="line"/>
      <point x="398" y="465" type="line"/>
      <point x="398" y="198" type="line" smooth="yes"/>
      <point x="398" y="100"/>
      <point x="345" y="44"/>
      <point x="266" y="44" type="curve" smooth="yes"/>
      <point x="191" y="44"/>
      <point x="162" y="75"/>
      <point x="162" y="169" type="curve" smooth="yes"/>
    </contour>
  </outline>
</glyph>
<glyph name="v" format="2">
  <advance width="519"/>
  <unicode hex="0076"/>
  <outline>
    <contour>
      <point x="302" y="0" type="line"/>
      <point x="475" y="465" type="line"/>
      <point x="402" y="465" type="line"/>
      <point x="249" y="25" type="line"/>
      <point x="278" y="25" type="line"/>
      <point x="118" y="465" type="line"/>
      <point x="44" y="465" type="line"/>
      <point x="221" y="0" type="line"/>
    </contour>
  </outline>
</glyph>
<glyph name="y" format="2">
  <advance width="519"/>
  <unicode hex="0079"/>
  <outline>
    <contour>
      <point x="112" y="-200" type="line" smooth="yes"/>
      <point x="200" y="-200"/>
      <point x="226" y="-179"/>
      <point x="265" y="-79" type="curve" smooth="yes"/>
      <point x="476" y="465" type="line"/>
      <point x="402" y="465" type="line"/>
      <point x="246" y="40" type="line"/>
      <point x="281" y="40" type="line"/>
      <point x="119" y="465" type="line"/>
      <point x="43" y="465" type="line"/>
      <point x="234" y="-17" type="line"/>
      <point x="263" y="-17" type="line"/>
      <point x="232" y="19" type="line"/>
      <point x="193" y="-82" type="line" smooth="yes"/>
      <point x="175" y="-127"/>
      <point x="165" y="-143"/>
      <point x="126" y="-143" type="curve" smooth="yes"/>
      <point x="66" y="-143" type="line"/>
      <point x="66" y="-200" type="line"/>
    </contour>
  </outline>
</glyph>
<glyph name="braceright" format="2">
  <advance width="457"/>
  <unicode hex="007D"/>
  <outline>
    <contour>
      <point x="87" y="-200" type="line"/>
      <point x="156" y="-200" type="line" smooth="yes"/>
      <point x="232" y="-200"/>
      <point x="268" y="-164"/>
      <point x="268" y="-84" type="curve" smooth="yes"/>
      <point x="268" y="108" type="line" smooth="yes"/>
      <point x="268" y="174"/>
      <point x="302" y="208"/>
      <point x="372" y="210" type="curve"/>
      <point x="372" y="261" type="line"/>
      <point x="301" y="263"/>
      <point x="268" y="296"/>
      <point x="268" y="362" type="curve" smooth="yes"/>
      <point x="268" y="549" type="line" smooth="yes"/>
      <point x="268" y="640"/>
      <point x="230" y="685"/>
      <point x="156" y="685" type="curve" smooth="yes"/>
      <point x="87" y="685" type="line"/>
      <point x="87" y="633" type="line"/>
      <point x="124" y="633" type="line" smooth="yes"/>
      <point x="177" y="633"/>
      <point x="198" y="612"/>
      <point x="198" y="556" type="curve" smooth="yes"/>
      <point x="198" y="345" type="line" smooth="yes"/>
      <point x="198" y="285"/>
      <point x="239" y="244"/>
      <point x="310" y="231" type="curve"/>
      <point x="310" y="238" type="line"/>
      <point x="239" y="227"/>
      <point x="198" y="188"/>
      <point x="198" y="128" type="curve" smooth="yes"/>
      <point x="198" y="-79" type="line" smooth="yes"/>
      <point x="198" y="-129"/>
      <point x="178" y="-146"/>
      <point x="124" y="-146" type="curve" smooth="yes"/>
      <point x="87" y="-146" type="line"/>
    </contour>
  </outline>
</glyph>
<glyph name="asciitilde" format="2">
  <advance width="534"/>
  <unicode hex="007E"/>
  <outline>
    <contour>
      <point x="374" y="240" type="curve" smooth="yes"/>
      <point x="420" y="240"/>
      <point x="451" y="248"/>
      <point x="488" y="274" type="curve"/>
      <point x="488" y="335" type="line"/>
      <point x="457" y="311"/>
      <point x="422" y="296"/>
      <point x="382" y="296" type="curve" smooth="yes"/>
      <point x="312" y="296"/>
      <point x="247" y="346"/>
      <point x="160" y="346" type="curve" smooth="yes"/>
      <point x="113" y="346"/>
      <point x="77" y="331"/>
      <point x="46" y="310" type="curve"/>
      <point x="46" y="252" type="line"/>
      <point x="80" y="275"/>
      <point x="110" y="289"/>
      <point x="154" y="289" type="curve" smooth="yes"/>
      <point x="221" y="289"/>
      <point x="300" y="240"/>
    </contour>
  </outline>
</glyph>
